<svg version="1.1" id="Layer_1" xmlns="http://www.w3.org/2000/svg" xmlns:xlink="http://www.w3.org/1999/xlink" x="0px" y="0px"
	 width="100%" viewBox="0 0 51 87" enable-background="new 0 0 51 87" xml:space="preserve">
<path fill="#030303" opacity="1.000000" stroke="none" 
	d="
M34.000000,1.000000 
	C39.971325,1.000000 45.942646,1.000000 52.000000,1.000000 
	C52.000000,25.354166 52.000000,49.708424 51.601524,74.620575 
	C49.354000,74.170265 47.524700,73.123375 45.649685,72.166008 
	C44.130146,71.390160 42.555637,70.721962 40.734314,69.907196 
	C39.998375,69.958229 39.533634,70.108063 39.068893,70.257896 
	C39.638386,71.109459 40.207878,71.961029 40.545265,72.955521 
	C39.921619,73.473015 39.530087,73.847580 38.792515,74.028229 
	C35.712025,73.201279 32.977577,72.568260 30.144363,71.487617 
	C30.188314,67.356750 30.331030,63.673512 30.862640,60.009918 
	C32.813076,60.057041 34.374615,60.084522 35.966362,60.344887 
	C35.996571,60.577774 36.044056,61.045044 36.257908,61.309692 
	C37.631851,61.049347 38.791946,60.524357 39.974010,60.001274 
	C39.995979,60.003185 39.998425,59.959969 40.270866,59.802856 
	C40.701889,58.834324 40.860470,58.022903 41.417496,57.171734 
	C43.868412,56.760921 45.920876,56.389854 48.319481,55.946648 
	C48.741669,54.962509 48.817715,54.050507 48.935112,52.803555 
	C48.657074,51.640350 48.337677,50.812099 48.010147,49.698044 
	C47.731346,48.945831 47.460682,48.479420 47.275307,47.659695 
	C51.937542,41.076069 49.330147,33.918983 49.822861,27.172932 
	C49.850021,26.801062 48.046791,26.295502 47.008400,25.517824 
	C45.941086,24.787661 44.960922,24.391844 44.007439,23.644844 
	C44.041374,22.823816 44.048630,22.353977 44.074894,21.792591 
	C44.093903,21.701046 44.006145,21.535925 44.319702,21.286972 
	C44.690048,20.032139 44.746845,19.026258 45.163395,17.992685 
	C46.202187,17.760851 46.881218,17.556711 46.538982,17.659599 
	C45.318542,13.609435 44.225414,9.981762 43.590843,7.875860 
	C40.114670,5.852153 37.680271,4.434932 35.037731,2.791018 
	C34.553062,2.042885 34.276531,1.521442 34.000000,1.000000 
M32.689457,62.910793 
	C32.937122,62.715591 33.184784,62.520390 33.432449,62.325191 
	C33.074989,62.379440 32.717525,62.433689 32.689457,62.910793 
z"/>
<path fill="#1C1C1C" opacity="1.000000" stroke="none" 
	d="
M0.999999,41.000000 
	C1.000000,40.555664 1.000000,40.111328 1.361634,39.348557 
	C2.442175,38.382854 3.161083,37.735584 3.879991,37.088314 
	C2.919994,37.058876 1.959997,37.029438 1.000000,37.000000 
	C1.000000,36.250000 1.000000,35.500000 1.375532,34.412140 
	C2.834490,33.386765 3.917915,32.699253 5.116559,32.378223 
	C5.739754,32.863476 6.247731,32.982243 6.755708,33.101013 
	C6.620379,32.325115 6.485050,31.549219 6.219257,30.549885 
	C5.811258,29.901102 5.533723,29.475754 5.525808,28.900791 
	C6.618329,27.921116 7.441229,27.091057 8.517756,26.159546 
	C9.135036,25.658323 9.498693,25.258551 10.253614,24.873806 
	C11.421157,24.902617 12.197435,24.916403 13.018422,25.258322 
	C13.709504,26.057285 14.355878,26.528114 15.233918,27.126740 
	C16.299444,27.511038 17.133305,27.767540 18.074728,28.245827 
	C18.367596,28.755003 18.620951,28.957085 18.952023,29.430059 
	C17.969646,31.185034 16.977600,32.583805 15.860559,34.272861 
	C15.769583,35.238293 15.803598,35.913433 15.837615,36.588577 
	C16.297712,35.741470 16.757809,34.894367 17.603119,34.053673 
	C19.943438,34.373714 21.898548,34.687351 24.176128,35.013588 
	C24.999048,34.684044 25.499495,34.341900 26.331816,33.996864 
	C27.105490,33.972343 27.547287,33.950718 28.323595,33.946465 
	C29.104218,33.985043 29.550331,34.006256 29.937771,34.379143 
	C28.706898,35.461330 27.534695,36.191849 26.362494,36.922363 
	C26.602047,37.372784 26.841600,37.823208 27.081152,38.273628 
	C29.382343,38.852470 31.683535,39.431313 34.225571,39.898468 
	C34.654991,39.494247 34.843575,39.201717 35.134895,38.692245 
	C35.502525,38.075317 35.767414,37.675331 36.347504,37.278618 
	C37.100166,37.953472 37.537628,38.625053 37.949974,39.514767 
	C37.904892,40.025955 37.912193,40.318329 37.576279,40.788780 
	C36.804764,43.643764 36.403728,46.319992 35.881020,49.283905 
	C35.759350,50.679146 35.759350,51.786705 35.759350,53.375572 
	C33.089436,52.900364 30.606098,52.458363 28.067722,51.661705 
	C26.058035,49.775124 24.103388,48.243202 22.168961,46.379166 
	C22.147505,45.597015 22.105825,45.146980 21.951756,44.358154 
	C19.898525,43.994434 17.957685,43.969505 15.674591,43.991951 
	C14.741752,44.678192 14.151167,45.317062 13.298313,45.759987 
	C11.029644,44.994068 9.023244,44.424088 6.645069,43.897690 
	C5.526562,43.921818 4.779829,43.902363 4.029408,43.513954 
	C3.017145,42.430000 2.008571,41.715000 0.999999,41.000000 
M21.300760,36.405987 
	C21.011671,36.620564 20.722582,36.835136 20.433493,37.049713 
	C20.610159,37.233681 20.786827,37.417652 20.963491,37.601620 
	C21.191612,37.322231 21.419733,37.042843 21.300760,36.405987 
z"/>
<path fill="#030303" opacity="1.000000" stroke="none" 
	d="
M0.999999,79.000000 
	C1.000000,69.979103 1.000000,60.958210 1.271060,51.193615 
	C2.355636,51.021820 3.169151,51.593723 3.991232,52.396484 
	C3.999799,52.627338 4.047748,53.086876 4.179893,53.390743 
	C5.540353,54.146526 6.768669,54.598438 8.000121,55.023434 
	C8.003258,54.996513 7.950708,55.009811 7.897003,55.301598 
	C8.213987,56.043476 8.584677,56.493576 8.804770,57.277100 
	C8.000001,59.151463 6.689086,60.949825 10.157101,61.270805 
	C10.797625,61.546909 11.244552,61.503044 11.732920,61.468987 
	C11.774360,61.478790 11.731189,61.409836 11.404943,61.601479 
	C12.041929,62.190849 13.005158,62.588573 14.205013,63.008751 
	C14.441637,63.031204 14.914270,62.980244 15.024260,63.307804 
	C16.114586,63.425365 17.094925,63.215370 18.373165,63.002827 
	C19.066896,63.008221 19.462725,63.016167 19.862316,63.417053 
	C19.555546,65.137749 19.638569,67.278160 18.866184,67.652214 
	C15.566664,69.250092 18.155855,70.284554 18.615051,71.701904 
	C15.508557,72.247719 12.746938,72.613686 9.672689,72.953262 
	C8.943168,72.910194 8.526274,72.893509 7.925470,72.723305 
	C6.040409,73.095001 4.339258,73.620224 2.638107,74.145447 
	C3.021268,74.442200 3.404430,74.738953 3.787592,75.035713 
	C2.858394,76.357140 1.929196,77.678566 0.999999,79.000000 
z"/>
<path fill="#080505" opacity="1.000000" stroke="none" 
	d="
M1.000000,25.000000 
	C1.000000,17.103289 1.000000,9.206579 1.000000,1.000000 
	C4.674753,1.000000 8.358201,1.000000 12.533117,1.308496 
	C13.366183,2.080624 13.707780,2.544257 14.032366,3.251052 
	C14.015353,3.494215 14.093148,3.975488 13.691000,3.989098 
	C9.858325,3.705613 9.447779,6.240545 8.696572,8.667602 
	C8.319288,9.886560 7.329115,10.915823 6.143267,12.770338 
	C6.145145,12.775571 6.577501,13.979901 7.022869,15.471979 
	C7.347257,16.683067 7.658632,17.606405 7.879343,18.754478 
	C7.788677,18.979210 7.758301,19.462803 7.433303,19.498260 
	C6.668473,19.943697 6.228642,20.353676 5.517139,20.909737 
	C1.375312,22.969435 7.051624,24.157438 5.492776,25.849792 
	C5.372929,25.813320 5.129852,25.874046 4.849416,25.622557 
	C3.379320,25.247379 2.189660,25.123690 1.000000,25.000000 
z"/>
<path fill="#4D4C4D" opacity="1.000000" stroke="none" 
	d="
M39.138554,74.222153 
	C39.530087,73.847580 39.921619,73.473015 40.855316,72.960114 
	C41.266827,71.883202 41.136169,70.944603 41.005512,70.006012 
	C42.555637,70.721962 44.130146,71.390160 45.649685,72.166008 
	C47.524700,73.123375 49.354000,74.170265 51.601524,75.089233 
	C52.000000,75.444443 52.000000,75.888893 51.712574,76.767868 
	C50.911873,77.810364 50.398598,78.418320 49.673225,79.006378 
	C49.461128,78.986473 49.036804,79.024818 49.001740,78.736847 
	C48.092709,78.314919 47.218742,78.180969 45.989479,77.917770 
	C43.468979,76.599731 41.303764,75.410942 39.138554,74.222153 
z"/>
<path fill="#767575" opacity="1.000000" stroke="none" 
	d="
M33.539364,1.000000 
	C34.276531,1.521442 34.553062,2.042885 34.660881,2.799416 
	C30.584703,3.725332 26.695745,4.577679 22.760786,5.028686 
	C21.152908,5.212974 18.608019,5.350012 20.182194,2.070601 
	C20.982838,1.646142 21.491419,1.323071 22.000000,1.000000 
	C25.692909,1.000000 29.385818,1.000000 33.539364,1.000000 
z"/>
<path fill="#4D4C4D" opacity="1.000000" stroke="none" 
	d="
M42.000000,88.000000 
	C40.933212,88.000000 39.866425,88.000000 38.341465,87.670425 
	C36.490047,86.655502 35.096798,85.970161 33.914841,85.037094 
	C38.053089,83.527603 41.980045,82.265846 46.253967,81.048920 
	C47.022148,81.274330 47.443367,81.454903 47.718758,81.786560 
	C47.375397,82.308815 47.177872,82.679993 46.640186,83.111267 
	C45.230461,83.451614 44.160892,83.731850 42.766106,84.152786 
	C42.313065,84.969193 42.185249,85.644897 42.144852,86.598793 
	C42.154846,87.251320 42.077423,87.625656 42.000000,88.000000 
z"/>
<path fill="#444243" opacity="1.000000" stroke="none" 
	d="
M0.999999,79.250000 
	C1.929196,77.678566 2.858394,76.357140 3.787592,75.035713 
	C3.404430,74.738953 3.021268,74.442200 2.638107,74.145447 
	C4.339258,73.620224 6.040409,73.095001 7.888417,73.118759 
	C7.046072,76.069481 6.056869,78.471237 4.827127,81.006508 
	C4.388164,81.439545 4.189739,81.739052 3.691347,81.954002 
	C2.594253,81.246292 1.797126,80.623146 1.000000,80.000000 
	C1.000000,80.000000 1.000000,79.500000 0.999999,79.250000 
z"/>
<path fill="#636262" opacity="1.000000" stroke="none" 
	d="
M33.703552,85.284821 
	C35.096798,85.970161 36.490047,86.655502 37.941647,87.670425 
	C31.978848,88.000000 25.957697,88.000000 19.578045,87.772255 
	C19.489920,87.349007 19.760294,87.153503 20.484745,86.985931 
	C24.288654,87.001671 27.638491,86.989456 31.284519,86.972961 
	C31.960657,86.604515 32.340599,86.240349 32.973991,85.741150 
	C33.386150,85.499016 33.544849,85.391914 33.703552,85.284821 
z"/>
<path fill="#444243" opacity="1.000000" stroke="none" 
	d="
M20.030670,86.957993 
	C19.760294,87.153503 19.489920,87.349007 19.109772,87.772255 
	C18.555555,88.000000 18.111111,88.000000 17.161953,87.683228 
	C15.471126,87.292664 14.285011,87.218864 12.993437,86.848984 
	C12.542083,86.321602 12.196188,86.090302 11.910969,85.541451 
	C12.030971,84.796783 12.090298,84.369682 12.565698,83.951843 
	C15.484463,84.600067 19.187136,82.416565 20.030670,86.957993 
z"/>
<path fill="#EBEBEB" opacity="1.000000" stroke="none" 
	d="
M3.982667,52.165627 
	C3.169151,51.593723 2.355636,51.021820 1.271060,50.724960 
	C1.000000,49.933331 1.000000,48.866661 1.316594,47.314716 
	C2.069835,46.834938 2.506483,46.840435 3.292950,47.020859 
	C5.273120,47.305401 4.290499,51.783180 7.486684,49.745056 
	C7.715769,50.678940 7.847929,51.304947 7.576427,51.930008 
	C6.109399,52.007915 5.046033,52.086773 3.982667,52.165627 
z"/>
<path fill="#FFFFFF" opacity="1.000000" stroke="none" 
	d="
M43.091324,84.012093 
	C44.160892,83.731850 45.230461,83.451614 46.759190,83.305229 
	C47.586685,83.676247 47.955025,83.913406 48.519623,84.483932 
	C48.477253,85.878197 48.238628,86.939095 48.000000,88.000000 
	C47.250000,88.000000 46.500000,88.000000 45.458511,87.901779 
	C45.167023,87.803551 45.013519,87.596359 44.916466,87.217461 
	C44.243385,85.896408 43.667355,84.954247 43.091324,84.012093 
z"/>
<path fill="#000000" opacity="1.000000" stroke="none" 
	d="
M48.500000,88.000000 
	C48.238628,86.939095 48.477253,85.878197 48.964535,84.456039 
	C49.503334,84.030426 49.793476,83.966080 50.326210,83.870880 
	C50.873390,83.642235 51.013134,83.362160 51.241043,82.935005 
	C51.662693,82.913460 51.831345,82.956726 52.000000,83.000000 
	C51.329926,84.864624 54.024826,88.748230 48.500000,88.000000 
z"/>
<path fill="#F3F3F3" opacity="1.000000" stroke="none" 
	d="
M5.001341,32.011742 
	C3.917915,32.699253 2.834490,33.386765 1.375532,34.037140 
	C1.000000,32.285793 1.000000,30.571589 1.176469,28.568165 
	C1.352937,28.278948 1.797947,28.213049 1.948302,28.390306 
	C2.297310,28.822496 2.553550,28.988583 2.936880,29.392834 
	C3.637516,30.163355 4.268649,30.606865 4.952032,31.287880 
	C5.004282,31.525385 5.001340,32.011742 5.001341,32.011742 
z"/>
<path fill="#FFFFFF" opacity="1.000000" stroke="none" 
	d="
M1.000000,80.416626 
	C1.797126,80.623146 2.594253,81.246292 3.754242,82.199974 
	C4.345874,82.963829 4.574643,83.397141 4.521272,83.901535 
	C3.803029,84.302200 3.366926,84.631790 2.609354,84.979370 
	C1.858590,84.998245 1.429295,84.999123 1.000000,85.000000 
	C1.000000,83.611084 1.000000,82.222168 1.000000,80.416626 
z"/>
<path fill="#000000" opacity="1.000000" stroke="none" 
	d="
M1.000000,85.500000 
	C1.429295,84.999123 1.858590,84.998245 2.844716,85.120010 
	C3.632953,85.521828 3.864358,85.801018 4.156308,86.302155 
	C4.391768,86.806335 4.644410,86.964203 4.986490,87.248138 
	C4.998801,87.665718 4.999401,87.832863 5.000000,88.000000 
	C3.748004,87.170662 0.685187,89.962959 1.000000,85.500000 
z"/>
<path fill="#2B292A" opacity="1.000000" stroke="none" 
	d="
M0.999999,41.375000 
	C2.008571,41.715000 3.017145,42.430000 3.841172,43.579041 
	C3.656626,44.013077 3.264273,44.073380 2.887730,44.040424 
	C2.007458,44.004978 1.503729,44.002487 1.000000,44.000000 
	C1.000000,43.250000 1.000000,42.500000 0.999999,41.375000 
z"/>
<path fill="#868686" opacity="1.000000" stroke="none" 
	d="
M1.797948,28.213049 
	C1.797947,28.213049 1.352937,28.278948 1.176469,28.139473 
	C1.000000,27.250000 1.000000,26.500000 1.000000,25.375000 
	C2.189660,25.123690 3.379320,25.247379 4.625495,25.906473 
	C3.720656,27.032270 2.759302,27.622660 1.797948,28.213049 
z"/>
<path fill="#050505" opacity="1.000000" stroke="none" 
	d="
M11.850292,85.859009 
	C12.196188,86.090302 12.542083,86.321602 12.942585,87.059700 
	C12.997192,87.566498 13.000000,88.000000 13.000000,88.000000 
	C11.933331,88.000000 10.866661,88.000000 9.315290,87.659874 
	C8.922566,86.869331 9.014543,86.418915 9.070811,85.982651 
	C9.035104,85.996796 9.050914,86.072525 9.401876,86.112610 
	C10.451990,86.054794 11.151141,85.956902 11.850292,85.859009 
z"/>
<path fill="#4B4B4B" opacity="1.000000" stroke="none" 
	d="
M14.049377,3.007890 
	C13.707780,2.544257 13.366183,2.080624 13.012293,1.308496 
	C14.066669,1.000000 15.133339,1.000000 16.652399,1.184707 
	C17.104790,1.369413 17.070377,1.751857 17.051495,2.034767 
	C17.029501,2.506679 17.026390,2.695681 16.662010,2.988152 
	C15.550285,3.063710 14.799831,3.035800 14.049377,3.007890 
z"/>
<path fill="#2B292A" opacity="1.000000" stroke="none" 
	d="
M1.000000,37.333332 
	C1.959997,37.029438 2.919994,37.058876 3.879991,37.088314 
	C3.161083,37.735584 2.442175,38.382854 1.361634,39.015060 
	C1.000000,38.555553 1.000000,38.111111 1.000000,37.333332 
z"/>
<path fill="#FFFFFF" opacity="1.000000" stroke="none" 
	d="
M49.885323,79.026276 
	C50.398598,78.418320 50.911873,77.810364 51.712574,77.101204 
	C52.000000,78.066521 52.000000,79.133034 51.774689,80.535385 
	C51.549377,80.871208 51.092926,80.977516 50.973278,80.711823 
	C50.530857,79.972847 50.208088,79.499557 49.885323,79.026276 
z"/>
<path fill="#FFFFFF" opacity="1.000000" stroke="none" 
	d="
M9.106518,85.968498 
	C9.014543,86.418915 8.922566,86.869331 8.915295,87.659874 
	C7.933213,88.000000 6.866426,88.000000 5.399819,88.000000 
	C4.999401,87.832863 4.998801,87.665718 5.361323,87.239410 
	C6.851803,86.642990 7.979160,86.305748 9.106518,85.968498 
z"/>
<path fill="#1C1C1C" opacity="1.000000" stroke="none" 
	d="
M1.000000,44.375000 
	C1.503729,44.002487 2.007458,44.004978 2.811769,44.382366 
	C3.055945,45.453487 2.999537,46.149712 2.943130,46.845936 
	C2.506483,46.840435 2.069835,46.834938 1.316594,46.914719 
	C1.000000,46.250000 1.000000,45.500000 1.000000,44.375000 
z"/>
<path fill="#D9D9D9" opacity="1.000000" stroke="none" 
	d="
M45.013519,87.596359 
	C45.013519,87.596359 45.167023,87.803551 45.083511,87.901779 
	C44.250000,88.000000 43.500000,88.000000 42.375000,88.000000 
	C42.077423,87.625656 42.154846,87.251320 42.522900,86.506470 
	C43.546860,86.622772 44.280190,87.109566 45.013519,87.596359 
z"/>
<path fill="#F3F3F3" opacity="1.000000" stroke="none" 
	d="
M17.070377,1.751857 
	C17.070377,1.751857 17.104790,1.369413 17.052395,1.184707 
	C18.388889,1.000000 19.777779,1.000000 21.583334,1.000000 
	C21.491419,1.323071 20.982838,1.646142 19.824047,2.019623 
	C18.472685,1.963974 17.771532,1.857916 17.070377,1.751857 
z"/>
<path fill="#403E40" opacity="1.000000" stroke="none" 
	d="
M51.092926,80.977516 
	C51.092926,80.977516 51.549377,80.871208 51.774689,80.935608 
	C52.000000,81.444443 52.000000,81.888893 52.000000,82.666672 
	C51.831345,82.956726 51.662693,82.913460 50.992981,82.865150 
	C50.326111,82.905144 50.160309,82.950188 49.997635,82.998184 
	C50.000759,83.001144 50.005283,83.009621 50.163292,82.681412 
	C50.286865,81.869957 50.252422,81.386726 50.438736,80.898132 
	C50.659489,80.892784 51.092926,80.977516 51.092926,80.977516 
z"/>
<path fill="#F3F3F3" opacity="1.000000" stroke="none" 
	d="
M13.399967,88.000000 
	C13.000000,88.000000 12.997192,87.566498 13.048044,87.355789 
	C14.285011,87.218864 15.471126,87.292664 16.828621,87.683228 
	C15.933311,88.000000 14.866622,88.000000 13.399967,88.000000 
z"/>
<path fill="#2C292A" opacity="1.000000" stroke="none" 
	d="
M7.980089,51.930954 
	C7.847929,51.304947 7.715769,50.678940 7.555050,49.714348 
	C7.526491,49.375767 7.532243,49.056362 7.863787,49.089798 
	C8.631005,48.819248 9.066681,48.515259 9.502356,48.211273 
	C9.034937,47.855972 8.567518,47.500671 7.824855,46.911880 
	C7.372022,45.736965 7.194433,44.795536 7.016844,43.854107 
	C9.023244,44.424088 11.029644,44.994068 13.410035,46.057945 
	C13.581725,47.831928 13.379424,49.112015 13.177124,50.392097 
	C14.140471,50.320225 15.103820,50.248352 16.297180,50.117290 
	C16.527193,50.058102 16.996321,49.983570 17.310013,50.008450 
	C18.043163,50.040089 18.462622,50.046852 18.913399,50.422905 
	C19.930637,51.596943 20.916557,52.401695 22.038929,53.417549 
	C22.478781,53.759441 22.782183,53.890221 23.399540,53.965752 
	C24.143263,53.256821 24.573034,52.603134 25.391708,51.946465 
	C26.561327,51.967773 27.342045,51.992069 28.122761,52.016365 
	C30.606098,52.458363 33.089436,52.900364 35.759350,53.375572 
	C35.759350,51.786705 35.759350,50.679146 36.277924,49.218819 
	C37.179916,46.114037 37.563339,43.362026 37.946758,40.610020 
	C37.912193,40.318329 37.904892,40.025955 38.326881,39.334534 
	C39.082302,35.902534 39.435692,32.868900 39.783760,29.502611 
	C40.120438,27.871567 40.462437,26.573179 40.682549,25.737532 
	C40.308514,25.142826 39.647381,24.091652 39.153862,22.787075 
	C39.886345,22.348146 40.451210,22.162619 41.214348,21.977634 
	C41.412613,21.978178 41.809196,21.952789 41.947201,22.231960 
	C42.717056,23.006100 43.348907,23.501064 43.980759,23.996029 
	C44.960922,24.391844 45.941086,24.787661 46.690250,25.596485 
	C46.614517,26.953476 47.251274,28.319674 46.850815,28.776348 
	C42.695110,33.515476 45.935310,39.077061 45.088596,44.164612 
	C44.899738,45.299397 46.443806,46.722595 47.190022,48.013004 
	C47.460682,48.479420 47.731346,48.945831 47.677231,49.674709 
	C46.545105,49.973503 45.737755,50.009830 44.888916,50.048023 
	C45.185257,51.037697 45.442932,51.898235 45.355499,52.837883 
	C43.679943,54.348488 42.349495,55.779984 41.019051,57.211483 
	C40.860470,58.022903 40.701889,58.834324 40.214493,59.656460 
	C39.786911,59.621433 39.688137,59.575687 39.589367,59.529945 
	C39.710258,59.686420 39.831150,59.842892 39.952042,59.999367 
	C38.791946,60.524357 37.631851,61.049347 36.509064,61.279488 
	C36.802063,60.810364 37.057762,60.636093 37.313461,60.461819 
	C36.854359,60.345211 36.395256,60.228607 35.936153,60.112003 
	C34.374615,60.084522 32.813076,60.057041 30.409935,59.902000 
	C29.131138,64.004089 28.693945,68.233742 28.256748,72.463387 
	C28.918875,72.287338 29.581001,72.111290 30.243128,71.935242 
	C32.977577,72.568260 35.712025,73.201279 38.792515,74.028229 
	C41.303764,75.410942 43.468979,76.599731 45.904839,78.282425 
	C46.085991,79.518921 45.996498,80.261513 45.907005,81.004089 
	C41.980045,82.265846 38.053089,83.527603 33.914841,85.037094 
	C33.544849,85.391914 33.386150,85.499016 32.710754,85.786140 
	C31.792150,86.303200 31.390240,86.640221 30.988327,86.977242 
	C27.638491,86.989456 24.288654,87.001671 20.484745,86.985931 
	C19.187136,82.416565 15.484463,84.600067 12.206534,83.896713 
	C10.952404,83.892044 10.473511,83.951767 9.925197,83.676849 
	C8.259739,82.519127 6.663702,81.696053 5.067666,80.872986 
	C6.056869,78.471237 7.046072,76.069481 8.072327,73.272278 
	C8.526274,72.893509 8.943168,72.910194 9.648832,73.275864 
	C9.844944,74.339638 9.752284,75.054428 9.706317,75.409019 
	C11.864645,75.206749 13.812077,75.413979 15.403379,74.757698 
	C16.796713,74.183060 17.789949,72.638283 18.959927,71.522064 
	C18.155855,70.284554 15.566664,69.250092 18.866184,67.652214 
	C19.638569,67.278160 19.555546,65.137749 20.125216,63.225227 
	C18.608402,61.773636 16.832453,60.906818 15.027439,59.672760 
	C14.278187,58.568325 13.557999,57.831131 12.544161,57.001709 
	C11.856138,56.793381 11.461764,56.677280 10.973884,56.232014 
	C9.903820,55.605167 8.927264,55.307491 7.950707,55.009811 
	C7.950708,55.009811 8.003258,54.996513 7.947621,54.671844 
	C7.931625,53.876827 7.971265,53.406471 7.999324,52.684944 
	C7.985192,52.266163 7.982641,52.098557 7.980089,51.930954 
z"/>
<path fill="#2B292A" opacity="1.000000" stroke="none" 
	d="
M41.016079,21.977089 
	C40.451210,22.162619 39.886345,22.348146 38.880165,22.683044 
	C38.263622,22.746458 38.088387,22.660505 37.763329,22.421268 
	C37.338669,22.107159 37.045773,22.062164 36.456558,22.103464 
	C35.806377,22.061399 35.434460,22.048878 34.924294,21.793318 
	C34.280579,21.371447 33.775105,21.192614 33.249664,20.636013 
	C31.856899,20.163919 30.484098,20.069593 28.733421,19.980892 
	C27.115530,19.801350 25.875517,19.616179 25.837152,19.610451 
	C22.816448,22.839804 20.391806,25.431921 17.967163,28.024040 
	C17.133305,27.767540 16.299444,27.511038 15.224472,26.716438 
	C14.577550,24.595228 14.171740,23.012115 13.923935,21.122124 
	C13.184875,20.426760 12.287810,20.038275 11.278432,19.393085 
	C11.092572,18.964672 11.019025,18.792961 11.003898,18.501686 
	C11.151392,18.217907 11.283989,18.104635 11.827298,17.984087 
	C13.028477,17.455992 13.862463,16.986122 15.158707,16.255814 
	C13.808209,16.145044 12.896004,16.070223 11.658120,16.002481 
	C9.891581,15.734451 8.450719,15.459342 7.009857,15.184232 
	C6.577501,13.979901 6.145145,12.775571 6.143267,12.770338 
	C7.329115,10.915823 8.319288,9.886560 8.696572,8.667602 
	C9.447779,6.240545 9.858325,3.705613 14.009996,3.999816 
	C15.628871,4.029847 16.526602,4.062768 17.424334,4.095689 
	C17.290649,3.692020 17.156965,3.288352 17.023281,2.884683 
	C17.026390,2.695681 17.029501,2.506679 17.051495,2.034767 
	C17.771532,1.857916 18.472685,1.963974 19.531986,2.121010 
	C18.608019,5.350012 21.152908,5.212974 22.760786,5.028686 
	C26.695745,4.577679 30.584703,3.725332 34.869026,3.026107 
	C37.680271,4.434932 40.114670,5.852153 43.590843,7.875860 
	C44.225414,9.981762 45.318542,13.609435 46.538982,17.659599 
	C46.881218,17.556711 46.202187,17.760851 44.809624,17.978750 
	C43.384830,17.992310 42.673573,17.992113 41.634205,17.995907 
	C40.868591,17.999088 40.431087,17.998276 39.997841,17.787767 
	C40.002106,17.578070 40.028179,17.159401 40.352703,17.017426 
	C40.128567,16.236494 39.579903,15.597538 39.015408,14.979029 
	C38.999573,14.999475 39.036068,14.964511 39.059357,14.697962 
	C38.715618,14.632490 38.348583,14.833566 37.980064,15.386930 
	C37.973492,16.208826 37.968403,16.678432 37.601875,17.014118 
	C36.549038,17.049017 35.857639,17.217842 35.166241,17.386665 
	C36.159172,17.943857 37.152107,18.501049 38.283211,19.050507 
	C38.421387,19.042770 38.694511,18.997961 38.809174,19.338747 
	C39.636536,20.215635 40.349232,20.751738 41.042149,21.459599 
	C41.022366,21.631359 41.016079,21.977091 41.016079,21.977089 
M18.329973,15.635683 
	C18.865929,16.293625 19.401884,16.951567 19.937841,17.609510 
	C20.461033,16.566933 20.984226,15.524353 21.507420,14.481773 
	C21.205526,14.294063 20.903633,14.106352 20.601740,13.918641 
	C19.944159,14.296871 19.286577,14.675102 18.329973,15.635683 
M19.412085,21.478579 
	C19.412085,21.478579 19.527315,21.408686 19.412085,21.478579 
M21.484190,19.591185 
	C21.484190,19.591185 21.415209,19.475266 21.484190,19.591185 
z"/>
<path fill="#585857" opacity="1.000000" stroke="none" 
	d="
M47.275307,47.659695 
	C46.443806,46.722595 44.899738,45.299397 45.088596,44.164612 
	C45.935310,39.077061 42.695110,33.515476 46.850815,28.776348 
	C47.251274,28.319674 46.614517,26.953476 46.777401,25.930832 
	C48.046791,26.295502 49.850021,26.801062 49.822861,27.172932 
	C49.330147,33.918983 51.937542,41.076069 47.275307,47.659695 
z"/>
<path fill="#908F90" opacity="1.000000" stroke="none" 
	d="
M30.144363,71.487617 
	C29.581001,72.111290 28.918875,72.287338 28.256748,72.463387 
	C28.693945,68.233742 29.131138,64.004089 30.021038,59.882359 
	C30.331030,63.673512 30.188314,67.356750 30.144363,71.487617 
z"/>
<path fill="#4B4B4B" opacity="1.000000" stroke="none" 
	d="
M41.417496,57.171734 
	C42.349495,55.779984 43.679943,54.348488 45.472801,52.933586 
	C45.935211,52.950184 46.160889,53.152031 46.208347,53.439865 
	C46.828320,54.491394 47.400833,55.255093 47.973343,56.018791 
	C45.920876,56.389854 43.868412,56.760921 41.417496,57.171734 
z"/>
<path fill="#252424" opacity="1.000000" stroke="none" 
	d="
M39.993580,17.997463 
	C40.431087,17.998276 40.868591,17.999088 41.796555,18.300510 
	C42.860054,19.579388 43.433102,20.557655 44.006149,21.535923 
	C44.006145,21.535925 44.093903,21.701046 43.700611,21.764996 
	C42.807945,21.870226 42.308571,21.911507 41.809196,21.952789 
	C41.809196,21.952789 41.412613,21.978178 41.214348,21.977634 
	C41.016079,21.977091 41.022366,21.631359 41.032017,21.122250 
	C40.681686,20.090742 40.321709,19.568342 39.970016,18.783831 
	C39.983398,18.346968 39.988491,18.172216 39.993580,17.997463 
z"/>
<path fill="#4B4B4B" opacity="1.000000" stroke="none" 
	d="
M45.817909,52.854481 
	C45.442932,51.898235 45.185257,51.037697 44.888916,50.048023 
	C45.737755,50.009830 46.545105,49.973503 47.685364,49.960510 
	C48.337677,50.812099 48.657074,51.640350 48.596222,52.741165 
	C47.530941,53.059830 46.845917,53.105930 46.160889,53.152031 
	C46.160889,53.152031 45.935211,52.950184 45.817909,52.854481 
z"/>
<path fill="#2C292A" opacity="1.000000" stroke="none" 
	d="
M40.734314,69.907196 
	C41.136169,70.944603 41.266827,71.883202 41.087429,72.817192 
	C40.207878,71.961029 39.638386,71.109459 39.068893,70.257896 
	C39.533634,70.108063 39.998375,69.958229 40.734314,69.907196 
z"/>
<path fill="#EBEBEB" opacity="1.000000" stroke="none" 
	d="
M46.208347,53.439865 
	C46.845917,53.105930 47.530941,53.059830 48.554863,53.076118 
	C48.817715,54.050507 48.741669,54.962509 48.319481,55.946648 
	C47.400833,55.255093 46.828320,54.491394 46.208347,53.439865 
z"/>
<path fill="#666566" opacity="1.000000" stroke="none" 
	d="
M44.319702,21.286972 
	C43.433102,20.557655 42.860054,19.579388 42.124660,18.296516 
	C42.673573,17.992113 43.384830,17.992310 44.449867,18.006443 
	C44.746845,19.026258 44.690048,20.032139 44.319702,21.286972 
z"/>
<path fill="#8F8C8D" opacity="1.000000" stroke="none" 
	d="
M41.947201,22.231960 
	C42.308571,21.911507 42.807945,21.870226 43.681602,21.856541 
	C44.048630,22.353977 44.041374,22.823816 44.007439,23.644844 
	C43.348907,23.501064 42.717056,23.006100 41.947201,22.231960 
z"/>
<path fill="#2C292A" opacity="1.000000" stroke="none" 
	d="
M32.524761,62.699364 
	C32.717525,62.433689 33.074989,62.379440 33.432449,62.325188 
	C33.184784,62.520390 32.937122,62.715591 32.524761,62.699364 
z"/>
<path fill="#131313" opacity="1.000000" stroke="none" 
	d="
M35.966362,60.344887 
	C36.395256,60.228607 36.854359,60.345211 37.313461,60.461819 
	C37.057762,60.636093 36.802063,60.810364 36.295212,61.014839 
	C36.044056,61.045044 35.996571,60.577774 35.966362,60.344887 
z"/>
<path fill="#373536" opacity="1.000000" stroke="none" 
	d="
M33.269630,21.013779 
	C33.775105,21.192614 34.280579,21.371447 34.788231,22.006472 
	C34.511181,22.643372 34.231949,22.824081 33.613495,23.014633 
	C32.183479,23.662374 31.092691,24.300274 30.161228,25.200314 
	C30.892467,25.626123 31.464380,25.789789 32.038349,25.962090 
	C32.040405,25.970722 32.052528,25.943636 32.040749,26.253700 
	C32.052235,26.973974 32.075504,27.384184 32.050083,28.192219 
	C32.005737,29.391586 32.010078,30.193125 31.741594,31.117146 
	C30.992472,31.854126 30.516171,32.468632 30.029755,33.319252 
	C30.019636,33.555370 29.996443,34.027470 29.996443,34.027470 
	C29.550331,34.006256 29.104218,33.985043 28.327564,33.624969 
	C27.997568,32.855125 27.998116,32.424141 28.135044,31.661507 
	C27.660633,30.554401 27.110306,29.179834 26.428207,29.110998 
	C23.956842,28.861593 21.441256,29.050404 18.942354,29.073856 
	C18.620951,28.957085 18.367596,28.755003 18.074726,28.245827 
	C20.391806,25.431921 22.816448,22.839804 25.837152,19.610451 
	C25.875517,19.616179 27.115530,19.801350 29.001038,20.066788 
	C30.854229,20.435965 32.061932,20.724873 33.269630,21.013779 
z"/>
<path fill="#2B292A" opacity="1.000000" stroke="none" 
	d="
M29.937771,34.379143 
	C29.996443,34.027470 30.019636,33.555370 30.381485,33.301544 
	C31.493378,32.363808 32.243423,31.679903 33.353226,31.052811 
	C34.486095,33.164864 35.259197,35.220100 36.032303,37.275341 
	C35.767414,37.675331 35.502525,38.075317 34.907501,38.822510 
	C34.379818,39.449867 34.182270,39.730011 33.984726,40.010159 
	C31.683535,39.431313 29.382343,38.852470 27.081152,38.273628 
	C26.841600,37.823208 26.602047,37.372784 26.362494,36.922363 
	C27.534695,36.191849 28.706898,35.461330 29.937771,34.379143 
M31.239367,36.813660 
	C31.361797,36.982044 31.484228,37.150425 31.606661,37.318806 
	C31.581255,37.083637 31.555851,36.848473 31.239367,36.813660 
z"/>
<path fill="#414040" opacity="1.000000" stroke="none" 
	d="
M36.347504,37.278618 
	C35.259197,35.220100 34.486095,33.164864 33.108501,31.052914 
	C32.504013,30.996202 32.014416,30.994665 32.014416,30.994665 
	C32.010078,30.193125 32.005737,29.391586 32.407349,28.229376 
	C33.533482,27.898193 34.253658,27.927683 35.251804,28.096003 
	C36.373283,28.822008 37.216797,29.409185 38.350792,29.983440 
	C39.023884,29.925434 39.406483,29.880350 39.789085,29.835266 
	C39.435692,32.868900 39.082302,35.902534 38.352005,39.116402 
	C37.537628,38.625053 37.100166,37.953472 36.347504,37.278618 
M37.599342,31.518211 
	C37.599342,31.518211 37.473232,31.596302 37.599342,31.518211 
z"/>
<path fill="#2B292A" opacity="1.000000" stroke="none" 
	d="
M18.952023,29.430059 
	C21.441256,29.050404 23.956842,28.861593 26.428207,29.110998 
	C27.110306,29.179834 27.660633,30.554401 27.871340,31.565184 
	C26.982424,31.528122 26.493593,31.255730 25.784472,30.793482 
	C24.994007,32.069412 24.423832,33.535202 23.853657,35.000988 
	C21.898548,34.687351 19.943438,34.373714 17.293812,34.032368 
	C16.394714,33.997295 16.190136,33.989933 15.985555,33.982574 
	C16.977600,32.583805 17.969646,31.185034 18.952023,29.430059 
z"/>
<path fill="#585858" opacity="1.000000" stroke="none" 
	d="
M18.882082,50.053616 
	C18.462622,50.046852 18.043163,50.040089 17.209049,49.839447 
	C16.551987,49.822540 16.309576,49.999508 16.067167,50.176479 
	C15.103820,50.248352 14.140471,50.320225 13.177124,50.392097 
	C13.379424,49.112015 13.581725,47.831928 13.672304,46.253887 
	C14.151167,45.317062 14.741752,44.678192 15.856785,44.265617 
	C17.588083,44.983685 18.794935,45.475456 20.001043,46.371094 
	C20.000271,47.849873 20.000242,48.924782 20.000107,49.999847 
	C20.000000,50.000000 19.999874,50.000153 19.720154,50.007839 
	C19.254318,50.028221 19.068199,50.040916 18.882082,50.053616 
z"/>
<path fill="#585858" opacity="1.000000" stroke="none" 
	d="
M23.085587,54.021000 
	C22.782183,53.890221 22.478781,53.759441 22.044945,53.080215 
	C21.276299,51.687897 20.638086,50.844025 19.999874,50.000153 
	C19.999874,50.000153 20.000000,50.000000 20.304295,49.846748 
	C21.121975,48.699429 21.635359,47.705357 22.148741,46.711281 
	C24.103388,48.243202 26.058035,49.775124 28.067722,51.661705 
	C27.342045,51.992069 26.561327,51.967773 25.066086,51.990723 
	C23.929567,52.698975 23.507576,53.359985 23.085587,54.021000 
z"/>
<path fill="#585857" opacity="1.000000" stroke="none" 
	d="
M6.645069,43.897690 
	C7.194433,44.795536 7.372022,45.736965 7.778517,47.244183 
	C7.849030,48.225433 7.690637,48.640900 7.532244,49.056362 
	C7.532243,49.056362 7.526491,49.375767 7.458126,49.406471 
	C4.290499,51.783180 5.273120,47.305401 3.292950,47.020859 
	C2.999537,46.149712 3.055945,45.453487 3.188313,44.415321 
	C3.264273,44.073380 3.656626,44.013077 3.844862,43.947990 
	C4.779829,43.902363 5.526562,43.921818 6.645069,43.897690 
z"/>
<path fill="#757575" opacity="1.000000" stroke="none" 
	d="
M5.612623,25.886265 
	C7.051624,24.157438 1.375312,22.969435 5.669580,21.153843 
	C6.703269,21.661737 7.312845,22.071608 7.986942,22.797718 
	C8.655093,23.695564 9.258722,24.277172 9.862350,24.858780 
	C9.498693,25.258551 9.135036,25.658323 8.076097,26.087543 
	C6.791418,26.040083 6.202020,25.963175 5.612623,25.886265 
z"/>
<path fill="#414040" opacity="1.000000" stroke="none" 
	d="
M37.576279,40.788780 
	C37.563339,43.362026 37.179916,46.114037 36.399593,48.931129 
	C36.403728,46.319992 36.804764,43.643764 37.576279,40.788780 
z"/>
<path fill="#2B292A" opacity="1.000000" stroke="none" 
	d="
M20.001785,45.967232 
	C18.794935,45.475456 17.588083,44.983685 16.199039,44.218243 
	C17.957685,43.969505 19.898525,43.994434 21.685135,44.509705 
	C21.021198,45.322441 20.511492,45.644836 20.001785,45.967232 
z"/>
<path fill="#565656" opacity="1.000000" stroke="none" 
	d="
M5.492776,25.849792 
	C6.202020,25.963175 6.791418,26.040083 7.822473,26.188993 
	C7.441229,27.091057 6.618329,27.921116 5.126802,28.876842 
	C3.927910,29.023615 3.397643,29.044718 2.867377,29.065823 
	C2.553550,28.988583 2.297310,28.822496 1.948302,28.390306 
	C2.759302,27.622660 3.720656,27.032270 4.905931,26.157963 
	C5.129852,25.874046 5.372929,25.813320 5.492776,25.849792 
z"/>
<path fill="#1E1E1F" opacity="1.000000" stroke="none" 
	d="
M13.765929,21.429003 
	C14.171740,23.012115 14.577550,24.595228 14.992805,26.588642 
	C14.355878,26.528114 13.709504,26.057285 12.975325,24.966311 
	C11.979348,23.660349 11.071178,22.974533 10.409533,22.192348 
	C10.794020,21.985960 10.931981,21.875940 11.411133,21.775436 
	C12.423525,21.666302 13.094728,21.547651 13.765929,21.429003 
z"/>
<path fill="#585858" opacity="1.000000" stroke="none" 
	d="
M10.163010,22.288717 
	C11.071178,22.974533 11.979348,23.660349 12.930616,24.638176 
	C12.197435,24.916403 11.421157,24.902617 10.253614,24.873806 
	C9.258722,24.277172 8.655093,23.695564 8.272513,22.781364 
	C9.050045,22.395420 9.606527,22.342070 10.163010,22.288717 
z"/>
<path fill="#373536" opacity="1.000000" stroke="none" 
	d="
M24.176130,35.013588 
	C24.423832,33.535202 24.994007,32.069412 25.782475,31.170967 
	C26.000488,32.492126 26.000214,33.245941 25.999939,33.999756 
	C25.499495,34.341900 24.999048,34.684044 24.176130,35.013588 
z"/>
<path fill="#565555" opacity="1.000000" stroke="none" 
	d="
M20.001043,46.371094 
	C20.511492,45.644836 21.021198,45.322441 21.797525,44.848495 
	C22.105825,45.146980 22.147505,45.597015 22.168964,46.379166 
	C21.635359,47.705357 21.121975,48.699429 20.304401,49.846596 
	C20.000242,48.924782 20.000271,47.849873 20.001043,46.371094 
z"/>
<path fill="#3B393A" opacity="1.000000" stroke="none" 
	d="
M15.860561,34.272861 
	C16.190136,33.989933 16.394714,33.997295 16.908600,34.025955 
	C16.757809,34.894367 16.297712,35.741470 15.837615,36.588577 
	C15.803598,35.913433 15.769583,35.238293 15.860561,34.272861 
z"/>
<path fill="#6D6868" opacity="1.000000" stroke="none" 
	d="
M2.936880,29.392834 
	C3.397643,29.044718 3.927910,29.023615 4.857182,29.026459 
	C5.533723,29.475754 5.811258,29.901102 5.858887,30.635944 
	C5.385914,30.980419 5.142848,31.015398 4.899782,31.050375 
	C4.268649,30.606865 3.637516,30.163355 2.936880,29.392834 
z"/>
<path fill="#3B393A" opacity="1.000000" stroke="none" 
	d="
M26.331816,33.996864 
	C26.000214,33.245941 26.000488,32.492126 26.002762,31.360825 
	C26.493593,31.255730 26.982424,31.528122 27.734961,31.896835 
	C27.998116,32.424141 27.997568,32.855125 27.993053,33.607605 
	C27.547287,33.950718 27.105490,33.972343 26.331816,33.996864 
z"/>
<path fill="#7D7B7C" opacity="1.000000" stroke="none" 
	d="
M4.952032,31.287880 
	C5.142848,31.015398 5.385914,30.980419 5.989351,30.859381 
	C6.485050,31.549219 6.620379,32.325115 6.755708,33.101013 
	C6.247731,32.982243 5.739754,32.863476 5.116559,32.378223 
	C5.001340,32.011742 5.004282,31.525385 4.952032,31.287880 
z"/>
<path fill="#2B292A" opacity="1.000000" stroke="none" 
	d="
M21.474308,36.584724 
	C21.419733,37.042843 21.191612,37.322231 20.963493,37.601620 
	C20.786827,37.417652 20.610159,37.233681 20.433493,37.049713 
	C20.722582,36.835136 21.011671,36.620564 21.474308,36.584724 
z"/>
<path fill="#3B393A" opacity="1.000000" stroke="none" 
	d="
M34.225571,39.898468 
	C34.182270,39.730011 34.379818,39.449867 34.804756,39.039455 
	C34.843575,39.201717 34.654991,39.494247 34.225571,39.898468 
z"/>
<path fill="#444243" opacity="1.000000" stroke="none" 
	d="
M18.615051,71.701904 
	C17.789949,72.638283 16.796713,74.183060 15.403379,74.757698 
	C13.812077,75.413979 11.864645,75.206749 9.706317,75.409019 
	C9.752284,75.054428 9.844944,74.339638 9.961460,73.302246 
	C12.746938,72.613686 15.508557,72.247719 18.615051,71.701904 
z"/>
<path fill="#0F1613" opacity="1.000000" stroke="none" 
	d="
M15.056503,60.040001 
	C16.832453,60.906818 18.608402,61.773636 20.121454,62.832283 
	C19.462725,63.016167 19.066896,63.008221 18.287567,62.682426 
	C16.907467,62.569794 15.910869,62.775017 14.914270,62.980240 
	C14.914270,62.980244 14.441637,63.031204 14.321535,62.671074 
	C14.169845,61.837467 14.138257,61.363983 14.277555,60.713371 
	C14.448442,60.536243 14.523099,60.049690 14.657248,60.091194 
	C14.791397,60.132698 15.056504,60.040001 15.056503,60.040001 
z"/>
<path fill="#7E7D7D" opacity="1.000000" stroke="none" 
	d="
M7.897002,55.301598 
	C8.927264,55.307491 9.903820,55.605167 10.972494,56.617466 
	C10.754350,58.211590 10.444089,59.091091 10.088627,59.615849 
	C9.680739,58.488628 9.318052,57.716148 8.955366,56.943672 
	C8.584677,56.493576 8.213987,56.043476 7.897002,55.301598 
z"/>
<path fill="#969595" opacity="1.000000" stroke="none" 
	d="
M10.133828,59.970592 
	C10.444089,59.091091 10.754350,58.211590 11.066000,56.946636 
	C11.461764,56.677280 11.856138,56.793381 12.443836,57.324532 
	C13.265806,58.509617 13.894453,59.279655 14.523099,60.049690 
	C14.523099,60.049690 14.448442,60.536243 14.000898,60.718254 
	C13.371942,60.933670 13.190530,60.967075 12.662467,61.065628 
	C12.107703,61.240246 11.899590,61.349712 11.691479,61.459183 
	C11.244552,61.503044 10.797625,61.546909 10.166420,61.019966 
	C10.032704,60.289639 10.083266,60.130116 10.133828,59.970592 
z"/>
<path fill="#FFFFFF" opacity="1.000000" stroke="none" 
	d="
M10.088627,59.615849 
	C10.083266,60.130116 10.032704,60.289639 9.972822,60.699997 
	C6.689086,60.949825 8.000001,59.151463 8.804770,57.277100 
	C9.318052,57.716148 9.680739,58.488628 10.088627,59.615849 
z"/>
<path fill="#FFFFFF" opacity="1.000000" stroke="none" 
	d="
M15.024260,63.307800 
	C15.910869,62.775017 16.907467,62.569794 17.989664,62.684975 
	C17.094925,63.215370 16.114586,63.425365 15.024260,63.307800 
z"/>
<path fill="#737373" opacity="1.000000" stroke="none" 
	d="
M8.010906,52.936119 
	C7.971265,53.406471 7.931625,53.876827 7.944485,54.698769 
	C6.768669,54.598438 5.540353,54.146526 4.572761,53.337494 
	C5.892625,52.965622 6.951766,52.950871 8.010906,52.936119 
z"/>
<path fill="#FFFFFF" opacity="1.000000" stroke="none" 
	d="
M13.009118,61.000477 
	C13.190530,60.967075 13.371942,60.933670 13.830011,60.895382 
	C14.138257,61.363983 14.169845,61.837467 14.084910,62.648624 
	C13.005158,62.588573 12.041929,62.190849 11.652298,61.821419 
	C12.486970,61.566639 12.748044,61.283558 13.009118,61.000477 
z"/>
<path fill="#171717" opacity="1.000000" stroke="none" 
	d="
M7.999325,52.684944 
	C6.951766,52.950871 5.892625,52.965622 4.440616,53.033623 
	C4.047748,53.086876 3.999799,52.627338 3.991233,52.396484 
	C5.046033,52.086773 6.109399,52.007915 7.576427,51.930008 
	C7.982641,52.098557 7.985192,52.266163 7.999325,52.684944 
z"/>
<path fill="#4C4A4A" opacity="1.000000" stroke="none" 
	d="
M12.662467,61.065628 
	C12.748044,61.283558 12.486970,61.566639 11.978542,61.629776 
	C11.731189,61.409836 11.774360,61.478790 11.732920,61.468987 
	C11.899590,61.349712 12.107703,61.240246 12.662467,61.065628 
z"/>
<path fill="#1E1E1F" opacity="1.000000" stroke="none" 
	d="
M7.022869,15.471979 
	C8.450719,15.459342 9.891581,15.734451 11.498146,16.363293 
	C11.595936,17.158787 11.528022,17.600548 11.460107,18.042311 
	C11.283989,18.104635 11.151392,18.217907 10.633445,18.562790 
	C9.459718,18.672218 8.714863,18.600983 7.970008,18.529745 
	C7.658632,17.606405 7.347257,16.683067 7.022869,15.471979 
z"/>
<path fill="#989797" opacity="1.000000" stroke="none" 
	d="
M10.409534,22.192348 
	C9.606527,22.342070 9.050045,22.395420 8.207992,22.465124 
	C7.312845,22.071608 6.703269,21.661737 5.941252,21.007761 
	C6.228642,20.353676 6.668473,19.943697 7.784056,19.757797 
	C9.320697,20.015369 10.181587,20.048859 11.027160,20.362999 
	C11.031208,21.017738 11.050574,21.391829 11.069941,21.765919 
	C10.931981,21.875940 10.794020,21.985960 10.409534,22.192348 
z"/>
<path fill="#FCFCFB" opacity="1.000000" stroke="none" 
	d="
M16.662010,2.988152 
	C17.156965,3.288352 17.290649,3.692020 17.424334,4.095689 
	C16.526602,4.062768 15.628871,4.029847 14.412144,3.986207 
	C14.093148,3.975488 14.015353,3.494215 14.032366,3.251052 
	C14.799831,3.035800 15.550285,3.063710 16.662010,2.988152 
z"/>
<path fill="#424142" opacity="1.000000" stroke="none" 
	d="
M11.042478,20.082348 
	C10.181587,20.048859 9.320697,20.015369 8.109054,19.722342 
	C7.758301,19.462803 7.788677,18.979210 7.879342,18.754478 
	C8.714863,18.600983 9.459718,18.672218 10.575026,18.682352 
	C11.019025,18.792961 11.092572,18.964672 11.208467,19.514950 
	C11.250814,19.893517 11.042478,20.082348 11.042478,20.082348 
z"/>
<path fill="#868686" opacity="1.000000" stroke="none" 
	d="
M46.253967,81.048927 
	C45.996498,80.261513 46.085991,79.518921 46.260128,78.411674 
	C47.218742,78.180969 48.092709,78.314919 48.970261,79.060608 
	C48.993786,80.105652 49.013729,80.538963 48.791428,81.226265 
	C48.320980,81.531990 48.092785,81.583733 47.864586,81.635468 
	C47.443367,81.454903 47.022148,81.274330 46.253967,81.048927 
z"/>
<path fill="#272625" opacity="1.000000" stroke="none" 
	d="
M49.033669,80.972275 
	C49.013729,80.538963 48.993786,80.105652 49.005325,79.348579 
	C49.036804,79.024818 49.461128,78.986473 49.673225,79.006378 
	C50.208088,79.499557 50.530857,79.972847 50.973278,80.711823 
	C51.092926,80.977516 50.659489,80.892784 50.138031,80.950714 
	C49.415340,80.992523 49.214108,80.976395 49.008110,80.980209 
	C49.003342,81.000153 49.033669,80.972275 49.033669,80.972275 
z"/>
<path fill="#403E40" opacity="1.000000" stroke="none" 
	d="
M47.718758,81.786560 
	C48.092785,81.583733 48.320980,81.531990 48.791424,81.226265 
	C49.033669,80.972275 49.003342,81.000153 48.891716,81.302025 
	C49.188484,82.072472 49.596886,82.541046 50.005283,83.009621 
	C50.005283,83.009621 50.000759,83.001144 49.992668,83.227501 
	C49.984577,83.453857 50.083614,83.901733 50.083614,83.901733 
	C49.793476,83.966080 49.503334,84.030426 48.768272,84.122673 
	C47.955025,83.913406 47.586685,83.676247 47.099346,83.245132 
	C47.177872,82.679993 47.375397,82.308815 47.718758,81.786560 
z"/>
<path fill="#1B1B1B" opacity="1.000000" stroke="none" 
	d="
M44.916466,87.217461 
	C44.280190,87.109566 43.546860,86.622772 42.435478,86.228287 
	C42.185249,85.644897 42.313065,84.969193 42.766102,84.152786 
	C43.667355,84.954247 44.243385,85.896408 44.916466,87.217461 
z"/>
<path fill="#636262" opacity="1.000000" stroke="none" 
	d="
M4.827127,81.006508 
	C6.663702,81.696053 8.259739,82.519127 9.746240,83.929398 
	C9.441441,85.035240 9.246178,85.553879 9.050915,86.072525 
	C9.050914,86.072525 9.035104,85.996796 9.070810,85.982651 
	C7.979160,86.305748 6.851803,86.642990 5.349613,86.988968 
	C4.644410,86.964203 4.391768,86.806335 4.403617,86.132889 
	C4.661392,85.104607 4.732402,84.467537 4.803412,83.830460 
	C4.574643,83.397141 4.345874,82.963829 4.054209,82.284538 
	C4.189739,81.739052 4.388164,81.439545 4.827127,81.006508 
z"/>
<path fill="#444243" opacity="1.000000" stroke="none" 
	d="
M31.284523,86.972961 
	C31.390240,86.640221 31.792150,86.303200 32.457298,85.921173 
	C32.340599,86.240349 31.960657,86.604515 31.284523,86.972961 
z"/>
<path fill="#ABAAAA" opacity="1.000000" stroke="none" 
	d="
M9.401876,86.112610 
	C9.246178,85.553879 9.441441,85.035240 9.815660,84.264046 
	C10.473511,83.951767 10.952404,83.892044 11.790462,83.887451 
	C12.090298,84.369682 12.030971,84.796783 11.910967,85.541443 
	C11.151141,85.956902 10.451990,86.054794 9.401876,86.112610 
z"/>
<path fill="#868686" opacity="1.000000" stroke="none" 
	d="
M50.326210,83.870880 
	C50.083614,83.901733 49.984577,83.453857 49.989544,83.224548 
	C50.160309,82.950188 50.326111,82.905144 50.739979,82.929955 
	C51.013134,83.362160 50.873390,83.642235 50.326210,83.870880 
z"/>
<path fill="#212121" opacity="1.000000" stroke="none" 
	d="
M4.521272,83.901535 
	C4.732402,84.467537 4.661392,85.104607 4.343072,85.910942 
	C3.864358,85.801018 3.632953,85.521828 3.166185,85.102013 
	C3.366926,84.631790 3.803029,84.302200 4.521272,83.901535 
z"/>
<path fill="#868686" opacity="1.000000" stroke="none" 
	d="
M50.163292,82.681412 
	C49.596886,82.541046 49.188484,82.072472 48.896481,81.282082 
	C49.214108,80.976395 49.415340,80.992523 49.917274,80.956070 
	C50.252422,81.386726 50.286865,81.869957 50.163292,82.681412 
z"/>
<path fill="#5F5E5F" opacity="1.000000" stroke="none" 
	d="
M39.783760,29.502611 
	C39.406483,29.880350 39.023884,29.925434 38.330284,29.611774 
	C37.029526,28.473919 36.039764,27.694811 35.026485,26.728045 
	C35.002968,26.540388 34.885490,26.180845 34.989803,25.936775 
	C35.363499,25.470911 35.632877,25.249117 36.076698,25.188507 
	C36.501995,24.900440 36.752850,24.451189 36.933723,23.619547 
	C36.847431,22.978512 36.831112,22.719866 37.083302,22.548452 
	C37.538925,22.615309 37.726036,22.594931 37.913147,22.574551 
	C38.088387,22.660505 38.263622,22.746458 38.712551,22.936443 
	C39.647381,24.091652 40.308514,25.142826 40.682549,25.737532 
	C40.462437,26.573179 40.120438,27.871567 39.783760,29.502611 
z"/>
<path fill="#4C4A4A" opacity="1.000000" stroke="none" 
	d="
M14.657248,60.091194 
	C13.894453,59.279655 13.265806,58.509617 12.737485,57.416759 
	C13.557999,57.831131 14.278187,58.568325 15.027439,59.672760 
	C15.056504,60.040001 14.791397,60.132698 14.657248,60.091194 
z"/>
<path fill="#565555" opacity="1.000000" stroke="none" 
	d="
M19.720154,50.007839 
	C20.638086,50.844025 21.276299,51.687897 21.908497,52.869106 
	C20.916557,52.401695 19.930637,51.596943 18.913399,50.422905 
	C19.068199,50.040916 19.254318,50.028221 19.720154,50.007839 
z"/>
<path fill="#2B292A" opacity="1.000000" stroke="none" 
	d="
M23.399538,53.965752 
	C23.507576,53.359985 23.929567,52.698975 24.677181,51.993706 
	C24.573034,52.603134 24.143263,53.256821 23.399538,53.965752 
z"/>
<path fill="#7E7D7D" opacity="1.000000" stroke="none" 
	d="
M7.863787,49.089798 
	C7.690637,48.640900 7.849030,48.225433 8.053761,47.477669 
	C8.567518,47.500671 9.034937,47.855972 9.502356,48.211273 
	C9.066681,48.515259 8.631005,48.819248 7.863787,49.089798 
z"/>
<path fill="#131313" opacity="1.000000" stroke="none" 
	d="
M39.974010,60.001274 
	C39.831150,59.842892 39.710258,59.686420 39.589367,59.529945 
	C39.688137,59.575687 39.786911,59.621433 39.942055,59.813572 
	C39.998425,59.959969 39.995979,60.003185 39.974010,60.001274 
z"/>
<path fill="#565555" opacity="1.000000" stroke="none" 
	d="
M16.297180,50.117290 
	C16.309576,49.999508 16.551987,49.822540 16.895359,49.814568 
	C16.996321,49.983570 16.527193,50.058102 16.297180,50.117290 
z"/>
<path fill="#373536" opacity="1.000000" stroke="none" 
	d="
M18.479485,15.344507 
	C19.286577,14.675102 19.944159,14.296871 20.601740,13.918641 
	C20.903633,14.106352 21.205526,14.294063 21.507420,14.481773 
	C20.984226,15.524353 20.461033,16.566933 19.937840,17.609510 
	C19.401884,16.951567 18.865929,16.293625 18.479485,15.344507 
z"/>
<path fill="#BFBDBE" opacity="1.000000" stroke="none" 
	d="
M11.027160,20.362999 
	C11.042478,20.082348 11.250814,19.893517 11.320780,19.771652 
	C12.287810,20.038275 13.184875,20.426760 13.923935,21.122124 
	C13.094728,21.547651 12.423525,21.666302 11.411132,21.775436 
	C11.050574,21.391829 11.031208,21.017738 11.027160,20.362999 
z"/>
<path fill="#B9B8B8" opacity="1.000000" stroke="none" 
	d="
M33.249664,20.636013 
	C32.061932,20.724873 30.854229,20.435965 29.378912,20.061163 
	C30.484098,20.069593 31.856899,20.163919 33.249664,20.636013 
z"/>
<path fill="#403E40" opacity="1.000000" stroke="none" 
	d="
M39.997841,17.787766 
	C39.988491,18.172216 39.983398,18.346968 39.653454,18.768608 
	C39.117241,19.009649 38.905876,19.003805 38.694511,18.997961 
	C38.694511,18.997961 38.421387,19.042770 38.264278,18.730375 
	C38.059219,17.994667 38.011269,17.571354 37.963314,17.148041 
	C37.968403,16.678432 37.973492,16.208826 38.249176,15.451626 
	C38.691872,15.097526 38.863968,15.031018 39.036068,14.964511 
	C39.036068,14.964511 38.999573,14.999475 38.914581,15.298140 
	C39.229122,16.117670 39.628651,16.638535 40.028179,17.159401 
	C40.028179,17.159401 40.002106,17.578070 39.997841,17.787766 
z"/>
<path fill="#9D9B9D" opacity="1.000000" stroke="none" 
	d="
M37.601875,17.014118 
	C38.011269,17.571354 38.059219,17.994667 38.126106,18.738110 
	C37.152107,18.501049 36.159172,17.943857 35.166241,17.386665 
	C35.857639,17.217842 36.549038,17.049017 37.601875,17.014118 
z"/>
<path fill="#212121" opacity="1.000000" stroke="none" 
	d="
M36.814789,22.461218 
	C36.831112,22.719866 36.847431,22.978512 36.661804,23.627773 
	C36.279408,24.036240 36.098949,24.054089 35.621422,24.039028 
	C34.867134,23.672342 34.409927,23.338568 33.952717,23.004791 
	C34.231949,22.824081 34.511181,22.643372 34.926476,22.249508 
	C35.434460,22.048878 35.806377,22.061399 36.486107,22.183500 
	C36.793915,22.293079 36.814789,22.461218 36.814789,22.461218 
z"/>
<path fill="#999898" opacity="1.000000" stroke="none" 
	d="
M40.352703,17.017426 
	C39.628651,16.638535 39.229122,16.117670 38.930420,15.277693 
	C39.579903,15.597538 40.128567,16.236494 40.352703,17.017426 
z"/>
<path fill="#B9B8B8" opacity="1.000000" stroke="none" 
	d="
M11.827298,17.984087 
	C11.528022,17.600548 11.595936,17.158787 11.823824,16.356213 
	C12.896004,16.070223 13.808209,16.145044 15.158707,16.255814 
	C13.862463,16.986122 13.028477,17.455992 11.827298,17.984087 
z"/>
<path fill="#666566" opacity="1.000000" stroke="none" 
	d="
M38.809174,19.338747 
	C38.905876,19.003805 39.117241,19.009649 39.645168,19.030716 
	C40.321709,19.568342 40.681686,20.090742 41.051800,20.950491 
	C40.349232,20.751738 39.636536,20.215635 38.809174,19.338747 
z"/>
<path fill="#373536" opacity="1.000000" stroke="none" 
	d="
M19.469700,21.443632 
	C19.527315,21.408686 19.412085,21.478579 19.469700,21.443632 
z"/>
<path fill="#999898" opacity="1.000000" stroke="none" 
	d="
M39.059357,14.697962 
	C38.863968,15.031018 38.691872,15.097526 38.250664,15.099338 
	C38.348583,14.833566 38.715618,14.632490 39.059357,14.697962 
z"/>
<path fill="#373536" opacity="1.000000" stroke="none" 
	d="
M37.083302,22.548452 
	C36.814789,22.461218 36.793915,22.293079 36.764366,22.213043 
	C37.045773,22.062164 37.338669,22.107159 37.763329,22.421268 
	C37.726036,22.594931 37.538925,22.615309 37.083302,22.548452 
z"/>
<path fill="#373536" opacity="1.000000" stroke="none" 
	d="
M21.449699,19.533226 
	C21.415209,19.475266 21.484190,19.591185 21.449699,19.533226 
z"/>
<path fill="#565656" opacity="1.000000" stroke="none" 
	d="
M33.613495,23.014633 
	C34.409927,23.338568 34.867134,23.672342 35.624931,24.277649 
	C35.925522,24.549177 35.902256,25.027321 35.902256,25.027321 
	C35.632877,25.249117 35.363499,25.470911 34.637871,25.888771 
	C33.471924,26.037771 32.762226,25.990704 32.052528,25.943636 
	C32.052528,25.943636 32.040405,25.970722 31.889679,25.697052 
	C31.159935,25.261646 30.580919,25.099909 30.001904,24.938173 
	C31.092691,24.300274 32.183479,23.662374 33.613495,23.014633 
z"/>
<path fill="#2D2B2B" opacity="1.000000" stroke="none" 
	d="
M32.040749,26.253700 
	C32.762226,25.990704 33.471924,26.037771 34.533554,26.132841 
	C34.885490,26.180845 35.002968,26.540388 35.004730,26.988579 
	C34.995605,27.610233 34.984718,27.783701 34.973835,27.957172 
	C34.253658,27.927683 33.533482,27.898193 32.456039,27.831551 
	C32.075504,27.384184 32.052235,26.973974 32.040749,26.253700 
z"/>
<path fill="#3B393A" opacity="1.000000" stroke="none" 
	d="
M31.741594,31.117146 
	C32.014416,30.994665 32.504013,30.996202 32.748741,30.996099 
	C32.243423,31.679903 31.493378,32.363808 30.391602,33.065422 
	C30.516171,32.468632 30.992472,31.854126 31.741594,31.117146 
z"/>
<path fill="#2D2B2B" opacity="1.000000" stroke="none" 
	d="
M30.161228,25.200314 
	C30.580919,25.099909 31.159935,25.261646 31.887623,25.688419 
	C31.464380,25.789789 30.892467,25.626123 30.161228,25.200314 
z"/>
<path fill="#3B393A" opacity="1.000000" stroke="none" 
	d="
M31.384907,36.713482 
	C31.555851,36.848473 31.581255,37.083637 31.606659,37.318806 
	C31.484228,37.150425 31.361797,36.982044 31.384907,36.713482 
z"/>
<path fill="#373536" opacity="1.000000" stroke="none" 
	d="
M35.251804,28.096001 
	C34.984718,27.783701 34.995605,27.610233 35.028244,27.176235 
	C36.039764,27.694811 37.029526,28.473919 38.039795,29.624695 
	C37.216797,29.409185 36.373283,28.822008 35.251804,28.096001 
z"/>
<path fill="#373536" opacity="1.000000" stroke="none" 
	d="
M37.536285,31.557257 
	C37.473232,31.596302 37.599342,31.518211 37.536285,31.557257 
z"/>
<path fill="#373536" opacity="1.000000" stroke="none" 
	d="
M36.076698,25.188507 
	C35.902256,25.027321 35.925522,24.549177 35.922009,24.310556 
	C36.098949,24.054089 36.279408,24.036240 36.731781,24.010166 
	C36.752850,24.451189 36.501995,24.900440 36.076698,25.188507 
z"/>
</svg>